MoBL_ARMS_module2_4_allmuscles elbow_states	
version=1	
nRows=380	
nColumns=2	
inDegrees=yes	
	
# SIMM Motion File Header:	
name MoBL_ARMS_module2_4_allmuscles elbow_states	
datacolumns 2	
datarows 380	
otherdata 1	
range 0 0.668637161	
endheader	
time	elbow_flexion
0	15
0.001	15.00010286
0.002	15.00041359
0.003	15.00093279
0.003751103	15.00146112
0.004502205	15.00210885
0.006162765	15.00397154
0.007701275	15.00623247
0.008776553	15.00811567
0.00985183	15.01025236
0.011792705	15.01475816
0.013180854	15.01849857
0.014569003	15.02267049
0.016918616	15.03072574
0.018547098	15.03704637
0.02017558	15.04397092
0.022752643	15.05617388
0.025329705	15.06991003
0.027906768	15.08517396
0.03048383	15.10196904
0.033603826	15.12434031
0.036100601	15.14383576
0.038597377	15.1647432
0.042476914	15.19997505
0.045679349	15.23154069
0.048881783	15.26529781
0.052084218	15.3012158
0.055286652	15.33922135
0.058489087	15.37926197
0.062811435	15.43641403
0.067133784	15.49698356
0.070095857	15.54036296
0.073057929	15.58523751
0.07892885	15.67839815
0.082931655	15.74499368
0.086185335	15.80087093
0.089439014	15.85826146
0.095125547	15.96205123
0.10081208	16.07009552
0.105420188	16.16064457
0.110028295	16.25385673
0.112825914	16.31172042
0.115623533	16.37055212
0.121477339	16.49685259
0.127331145	16.62753828
0.133184951	16.76278869
0.136383928	16.83870745
0.139582905	16.91608546
0.145497824	17.06317825
0.151412742	17.21564478
0.156743954	17.35798634
0.160266669	17.4547377
0.163789383	17.55371702
0.168339649	17.68500854
0.171516088	17.7790378
0.174692528	17.8751011
0.177137965	17.95047891
0.179583402	18.02712438
0.184104843	18.1722821
0.186635365	18.25552794
0.189165888	18.34023138
0.196086999	18.57973293
0.200236606	18.72900782
0.204386213	18.88267958
0.208209317	19.02829126
0.210237989	19.10715562
0.212266661	19.18714497
0.214933166	19.29401735
0.217599671	19.40288444
0.219880491	19.4976038
0.222161311	19.59381606
0.224038793	19.67414173
0.225916276	19.75549366
0.229425029	19.91030824
0.232933781	20.06877779
0.236442534	20.23092186
0.238534881	20.32937435
0.240627228	20.42914996
0.242372032	20.51336775
0.244116837	20.59851093
0.245966665	20.68979266
0.247816493	20.78211974
0.249280795	20.85594607
0.250745097	20.93042805
0.252848155	21.03854958
0.254951214	21.14802777
0.256598099	21.23470438
0.258244983	21.32221163
0.26045203	21.44078792
0.262659077	21.56085829
0.265497448	21.7174573
0.268335819	21.87651704
0.271174191	22.03802539
0.274012562	22.20196647
0.2759699	22.3164333
0.277927237	22.43205054
0.280057887	22.55920185
0.282188536	22.68770314
0.283329049	22.7570416
0.284469562	22.82675875
0.287141533	22.99158976
0.288760187	23.09245617
0.29037884	23.19408419
0.291811391	23.28465784
0.293243942	23.37582102
0.295286362	23.50681167
0.297328781	23.63899175
0.299891124	23.80648117
0.301912314	23.93989508
0.303933503	24.07444816
0.30645417	24.24382882
0.308256193	24.36598571
0.310058216	24.48902843
0.31138408	24.58012085
0.312709943	24.67168684
0.314598414	24.80292259
0.316486885	24.93511188
0.318036841	25.04431114
0.319586796	25.15414462
0.320869441	25.24551261
0.322152087	25.33731033
0.323908181	25.46368636
0.325664274	25.59086188
0.327124872	25.69724396
0.32858547	25.8041735
0.330009965	25.9089847
0.331434459	26.01431157
0.332864556	26.12056885
0.334294654	26.22734049
0.33568683	26.33177198
0.337079006	26.43668508
0.338573685	26.54985606
0.340068363	26.66357595
0.341305703	26.7581285
0.342543044	26.8530516
0.343966639	26.962719
0.345390235	27.07287089
0.346705057	27.17503283
0.34801988	27.27760123
0.349868756	27.42251517
0.351717631	27.56822322
0.353267418	27.69096329
0.354817204	27.81425072
0.35617394	27.92262374
0.357530677	28.03140735
0.35960551	28.19856109
0.361680344	28.366657
0.363755178	28.53568851
0.366287799	28.74325799
0.367245575	28.82211047
0.368203352	28.90114699
0.371518744	29.17621593
0.374834136	29.45348291
0.376769242	29.61633663
0.378416774	29.75555747
0.379716967	29.86579284
0.38101716	29.97634468
0.382376968	30.09230019
0.383736777	30.20859289
0.385041529	30.32048835
0.386346282	30.4326833
0.388077193	30.5819771
0.389808104	30.73177722
0.391070221	30.84131642
0.392332338	30.95111047
0.394202502	31.11426039
0.396072666	31.27794532
0.398452723	31.48699163
0.400832779	31.69683502
0.401820151	31.78411531
0.402807524	31.87151329
0.406070883	32.16126192
0.409334243	32.45225326
0.410897464	32.59206978
0.412460684	32.73213414
0.414023905	32.872455
0.415659411	33.01951316
0.417294916	33.16681508
0.418619989	33.28632647
0.419945061	33.40598183
0.421897558	33.58255004
0.423850054	33.75940501
0.425344628	33.89496354
0.426839201	34.03067586
0.428241537	34.15814922
0.429643872	34.28575135
0.430877681	34.39812177
0.432111489	34.51058633
0.433933499	34.67683884
0.435755508	34.84329292
0.437747	35.0254479
0.439738492	35.20782677
0.441729984	35.39043242
0.443721475	35.57325831
0.446235154	35.80433611
0.44779712	35.94810581
0.449359086	36.09202009
0.450921052	36.23607787
0.452483018	36.3802896
0.4539794	36.51859775
0.455475782	36.65706193
0.456655467	36.76633586
0.457835152	36.87571474
0.459455773	37.02615479
0.461076394	37.17681199
0.46255145	37.31413687
0.464026507	37.45166128
0.465314034	37.57186957
0.466601561	37.69224298
0.468401997	37.86086487
0.470202434	38.02985387
0.472030877	38.20186622
0.473859321	38.37430903
0.476164019	38.59230852
0.477969936	38.76365991
0.479775853	38.93550016
0.48158177	39.10784984
0.482585855	39.20390626
0.483589941	39.30011755
0.486655517	39.59493263
0.489187282	39.83962973
0.490760433	39.99226676
0.492123201	40.12485829
0.49370107	40.27880894
0.49527894	40.4332245
0.496957696	40.59803316
0.498636453	40.76338071
0.500138394	40.91177884
0.501640336	41.06061347
0.503142278	41.2099051
0.50437275	41.33254402
0.505603223	41.45548715
0.506793595	41.57470928
0.507983967	41.69421541
0.509548669	41.85173543
0.511113371	42.00975094
0.512446513	42.14477473
0.513779654	42.28016089
0.514994558	42.40385492
0.516209462	42.52785024
0.517958969	42.70694188
0.519708477	42.886666
0.521242613	43.04478184
0.522776749	43.2033841
0.524134695	43.34417281
0.525492641	43.48534018
0.526784378	43.61997606
0.528076116	43.7549537
0.529312769	43.88449482
0.530549422	44.01434795
0.532102381	44.17785612
0.533655339	44.34185725
0.534983433	44.48250317
0.536311527	44.62350996
0.537574944	44.75798519
0.538838361	44.89278758
0.540144785	45.0325238
0.541451209	45.17261177
0.542655547	45.30206476
0.543859885	45.43181734
0.545515974	45.61073323
0.547172064	45.79022337
0.5484832	45.93273373
0.549794337	46.0756045
0.551827963	46.29794216
0.553530832	46.48483654
0.554981061	46.64449071
0.55643129	46.80459898
0.55788152	46.9651604
0.559331749	47.1261929
0.560781978	47.28770913
0.562178202	47.4436753
0.563574426	47.60011251
0.565062009	47.76731418
0.566549592	47.9350866
0.567861683	48.08353749
0.569173774	48.23243343
0.570485866	48.38179194
0.571605562	48.50961214
0.572725258	48.63777238
0.57387431	48.76964303
0.575023363	48.90187702
0.576142617	49.03103678
0.577261872	49.1605493
0.578381126	49.29041715
0.57978982	49.45438346
0.581198514	49.61893455
0.582607208	49.78409369
0.584015901	49.94988119
0.585075036	50.07494408
0.586386582	50.23030374
0.587531224	50.36632461
0.588675866	50.50275728
0.589762789	50.63268874
0.590849711	50.76299421
0.591995621	50.9007753
0.593141532	51.03897841
0.594125587	51.15799647
0.595109643	51.27732597
0.596147176	51.4034733
0.597184709	51.52996746
0.598149271	51.64787489
0.599113833	51.766084
0.600122517	51.89001878
0.6011312	52.01428273
0.602142941	52.13924987
0.603154681	52.2645502
0.60409917	52.38181794
0.605043659	52.4993749
0.6064675	52.67713405
0.607362762	52.78921207
0.608258024	52.90155645
0.609267455	53.02854452
0.610276887	53.15586569
0.611255177	53.27956887
0.612233468	53.40358237
0.613200242	53.52643242
0.614167015	53.64958273
0.615123519	53.77171167
0.616080024	53.89413112
0.617030368	54.0160409
0.617980712	54.13823276
0.618884164	54.25464679
0.619787617	54.37130939
0.620691069	54.48820939
0.621594521	54.60535443
0.622501069	54.72313937
0.623407616	54.84116664
0.624273408	54.95410686
0.6251392	55.06726337
0.626057311	55.18748816
0.626975422	55.30795259
0.627867353	55.42520534
0.628759284	55.54268226
0.629606521	55.65447093
0.630453757	55.76645626
0.631352947	55.88551695
0.632252137	56.00479536
0.633131236	56.12161249
0.634010335	56.2386339
0.634905133	56.3579469
0.635799931	56.47746754
0.636694729	56.59718563
0.637589527	56.71710726
0.638413954	56.82777
0.639238382	56.9386001
0.64012525	57.05800407
0.641012118	57.17759783
0.641834479	57.28865623
0.64265684	57.3998739
0.643541429	57.51967828
0.644426017	57.63966312
0.64527358	57.75478882
0.646121143	57.87007735
0.64698248	57.98739813
0.647843817	58.10488316
0.648704394	58.22242148
0.649564971	58.34012036
0.650693251	58.49466175
0.651455551	58.59922206
0.652217852	58.70390419
0.65334356	58.85871369
0.654222155	58.97972833
0.655100749	59.10090397
0.655979492	59.22225821
0.656858235	59.34376373
0.657736978	59.4654098
0.658615721	59.58720228
0.659415583	59.69818132
0.660215446	59.80927682
0.661078737	59.92930565
0.661942028	60.04946729
0.662767123	60.16443012
0.663592217	60.27951168
0.664440616	60.39796017
0.665289015	60.51653083
0.666127472	60.63382578
0.666965928	60.7512386
0.667801545	60.86836336
0.668637161	60.98560271
